<svg width="181" height="51" viewBox="0 0 181 51" fill="none" xmlns="http://www.w3.org/2000/svg">
<circle cx="25.6144" cy="25.3892" r="24.8615" stroke="#DFE3E8"/>
<path d="M20.8457 28.5769L20.4373 34.6947C21.0373 34.6947 21.3024 34.4203 21.6373 34.0947L24.5201 31.2916L30.5173 35.7225C31.621 36.3315 32.4176 36.0162 32.6925 34.6978L36.6295 16.1452C37.0326 14.5291 36.0135 13.7962 34.9577 14.2755L11.8397 23.1897C10.2616 23.8227 10.2708 24.7031 11.552 25.0953L17.4846 26.947L31.2192 18.282C31.8676 17.8888 32.4627 18.1002 31.9743 18.5337L20.8453 28.5767L20.8457 28.5769Z" fill="#DFE3E8"/>
<circle cx="90.3058" cy="25.3892" r="24.8615" stroke="#DFE3E8"/>
<path fill-rule="evenodd" clip-rule="evenodd" d="M98.6636 14.1146H81.9514C80.5137 14.1146 79.3477 15.2791 79.3457 16.7168V33.4044C79.3429 34.0973 79.6162 34.7628 80.1052 35.2537C80.5942 35.7447 81.2585 36.0207 81.9514 36.0207H98.6636C99.3559 36.0197 100.019 35.7433 100.508 35.2525C100.996 34.7617 101.269 34.0967 101.266 33.4044V16.7168C101.264 15.2805 100.1 14.1166 98.6636 14.1146ZM88.7993 29.8927C88.7983 30.1243 88.7052 30.346 88.5405 30.5088C88.3757 30.6715 88.1529 30.762 87.9213 30.7601H84.2692C83.7915 30.7582 83.4053 30.3704 83.4053 29.8927V19.024C83.4053 18.5463 83.7915 18.1585 84.2692 18.1566H87.9213C88.3996 18.1585 88.7868 18.5457 88.7887 19.024L88.7993 29.8927ZM97.2274 24.9026C97.2274 25.1345 97.1345 25.3567 96.9696 25.5197C96.8046 25.6827 96.5813 25.7728 96.3494 25.77H92.6973C92.219 25.7681 91.8318 25.3808 91.8299 24.9026V19.024C91.8318 18.5457 92.219 18.1585 92.6973 18.1566H96.3494C96.8271 18.1585 97.2133 18.5463 97.2133 19.024L97.2274 24.9026Z" fill="#DFE3E8"/>
<circle cx="154.998" cy="25.3892" r="24.8615" stroke="#DFE3E8"/>
<path d="M161.694 25.7121C158.847 25.7121 156.539 28.0197 156.539 30.8664C156.539 33.7133 158.847 36.0211 161.694 36.0211C164.54 36.0211 166.848 33.7133 166.848 30.8664C166.848 28.0197 164.54 25.7121 161.694 25.7121ZM148.302 25.7124C145.455 25.7124 143.147 28.0197 143.147 30.8667C143.147 33.7133 145.455 36.0211 148.302 36.0211C151.149 36.0211 153.457 33.7133 153.457 30.8667C153.457 28.0197 151.149 25.7124 148.302 25.7124ZM160.152 19.269C160.152 22.1157 157.844 24.4238 154.998 24.4238C152.151 24.4238 149.843 22.1157 149.843 19.269C149.843 16.4224 152.151 14.1146 154.998 14.1146C157.844 14.1146 160.152 16.4224 160.152 19.269Z" fill="#DFE3E8"/>
</svg>
